<?xml version="1.0" encoding="UTF-8"?>
<svg width="149px" height="45px" viewBox="0 0 149 45" version="1.1" xmlns="http://www.w3.org/2000/svg" xmlns:xlink="http://www.w3.org/1999/xlink">
    <!-- Generator: sketchtool 52.6 (67491) - http://www.bohemiancoding.com/sketch -->
    <title>291653AA-C958-4CE2-9BB4-F6A36922F08A</title>
    <desc>Created with sketchtool.</desc>
    <defs>
        <linearGradient x1="91.522927%" y1="4.9512107%" x2="-38.2253302%" y2="71.8829057%" id="linearGradient-1">
            <stop stop-color="#00A0FF" offset="0%"></stop>
            <stop stop-color="#00A1FF" offset="1%"></stop>
            <stop stop-color="#00BEFF" offset="26%"></stop>
            <stop stop-color="#00D2FF" offset="51%"></stop>
            <stop stop-color="#00DFFF" offset="76%"></stop>
            <stop stop-color="#00E3FF" offset="100%"></stop>
        </linearGradient>
        <linearGradient x1="107.551793%" y1="49.8940678%" x2="-130.36311%" y2="49.8940678%" id="linearGradient-2">
            <stop stop-color="#FFE000" offset="0%"></stop>
            <stop stop-color="#FFBD00" offset="41%"></stop>
            <stop stop-color="#FFA500" offset="78%"></stop>
            <stop stop-color="#FF9C00" offset="100%"></stop>
        </linearGradient>
        <linearGradient x1="86.2574688%" y1="17.746229%" x2="-50.1901141%" y2="194.645147%" id="linearGradient-3">
            <stop stop-color="#FF3A44" offset="0%"></stop>
            <stop stop-color="#C31162" offset="100%"></stop>
        </linearGradient>
        <linearGradient x1="-18.8484519%" y1="-54.0442789%" x2="42.0966866%" y2="24.9130902%" id="linearGradient-4">
            <stop stop-color="#32A071" offset="0%"></stop>
            <stop stop-color="#2DA771" offset="7%"></stop>
            <stop stop-color="#15CF74" offset="48%"></stop>
            <stop stop-color="#06E775" offset="80%"></stop>
            <stop stop-color="#00F076" offset="100%"></stop>
        </linearGradient>
    </defs>
    <g id="Desktop" stroke="none" stroke-width="1" fill="none" fill-rule="evenodd">
        <g id="Home-Page" transform="translate(-561.000000, -4712.000000)">
            <g id="Google-play-logo" transform="translate(561.000000, 4712.000000)">
                <g id="Asset-2">
                    <rect id="Rectangle" fill="#412172" x="0" y="0" width="149" height="44.15" rx="5.52"></rect>
                    <path d="M52.34,11.31 C52.3769834,12.12914 52.0770644,12.9277196 51.51,13.52 C50.8797871,14.1847854 49.99558,14.5486566 49.08,14.52 C48.1510325,14.5286579 47.2587464,14.157924 46.6094322,13.4935094 C45.960118,12.8290949 45.6099917,11.9285231 45.64,11 C45.6331565,9.83913209 46.2122776,8.75311562 47.1800519,8.11196512 C48.1478262,7.47081462 49.3736969,7.36102408 50.44,7.82 C50.826575,7.98514229 51.1690662,8.23858576 51.44,8.56 L50.85,9.14 C50.405398,8.60544755 49.7342714,8.31252489 49.04,8.35 C48.3503805,8.35765415 47.69302,8.6432302 47.2167804,9.14205824 C46.7405408,9.64088629 46.4857116,10.3107659 46.51,11 C46.4854218,11.6952427 46.7459596,12.3703448 47.2312244,12.868827 C47.7164893,13.3673092 48.3843479,13.6458906 49.08,13.64 C49.7729989,13.6627964 50.4438949,13.394438 50.93,12.9 C51.2708456,12.5346351 51.4695152,12.059247 51.49,11.56 L49.08,11.56 L49.08,10.77 L52.29,10.77 C52.3239146,10.9479844 52.3406581,11.1288144 52.34,11.31 Z" id="Path" stroke="#FFFFFF" stroke-width="0.08" fill="#FFFFFF"></path>
                    <polygon id="Path" stroke="#FFFFFF" stroke-width="0.08" fill="#FFFFFF" points="57.42 8.54 54.42 8.54 54.42 10.64 57.14 10.64 57.14 11.43 54.41 11.43 54.41 13.53 57.41 13.53 57.41 14.35 53.56 14.35 53.56 7.73 57.42 7.73"></polygon>
                    <polygon id="Path" stroke="#FFFFFF" stroke-width="0.08" fill="#FFFFFF" points="61 14.35 60.15 14.35 60.15 8.54 58.31 8.54 58.31 7.73 62.86 7.73 62.86 8.54 61 8.54"></polygon>
                    <polygon id="Path" stroke="#FFFFFF" stroke-width="0.08" fill="#FFFFFF" points="66.15 14.35 66.15 7.73 67 7.73 67 14.35"></polygon>
                    <polygon id="Path" stroke="#FFFFFF" stroke-width="0.08" fill="#FFFFFF" points="70.78 14.35 69.93 14.35 69.93 8.54 68.08 8.54 68.08 7.73 72.63 7.73 72.63 8.54 70.78 8.54"></polygon>
                    <path d="M81.24,13.49 C80.5980891,14.1354799 79.7253262,14.4984082 78.815,14.4984082 C77.9046738,14.4984082 77.0319109,14.1354799 76.39,13.49 C75.737547,12.8431806 75.3765075,11.9586339 75.39,11.04 C75.3760935,10.1183485 75.7369886,9.2305467 76.39,8.58 C77.7294122,7.24100328 79.9005878,7.24100328 81.24,8.58 C81.8905025,9.22811968 82.2511892,10.1118021 82.24,11.03 C82.2562293,11.952086 81.8949786,12.8407628 81.24,13.49 Z M77,12.94 C77.9939505,13.9250558 79.5960495,13.9250558 80.59,12.94 C81.0850787,12.4338423 81.3523238,11.7476724 81.33,11.04 C81.3534967,10.3321269 81.0860784,9.64551228 80.59,9.14 C80.1163849,8.65934815 79.469787,8.38872129 78.795,8.38872129 C78.120213,8.38872129 77.4736151,8.65934815 77,9.14 C76.5039216,9.64551228 76.2365033,10.3321269 76.26,11.04 C76.2376762,11.7476724 76.5049213,12.4338423 77,12.94 Z" id="Shape" stroke="#FFFFFF" stroke-width="0.08" fill="#FFFFFF" fill-rule="nonzero"></path>
                    <polygon id="Path" stroke="#FFFFFF" stroke-width="0.08" fill="#FFFFFF" points="83.41 14.35 83.41 7.73 84.41 7.73 87.63 12.88 87.63 12.88 87.63 11.6 87.63 7.73 88.48 7.73 88.48 14.35 87.59 14.35 84.26 9 84.26 9 84.26 10.27 84.26 14.4"></polygon>
                    <path d="M75.2,24 C72.6042703,24.0055287 70.5044965,26.1142632 70.5100213,28.7099929 C70.515546,31.3057225 72.6242774,33.4054996 75.220007,33.3999787 C77.8157367,33.3944578 79.915517,31.2857297 79.91,28.69 C79.9264189,27.4376892 79.4348049,26.2321465 78.5473291,25.3484392 C77.6598533,24.4647319 76.4522296,23.9782523 75.2,24 Z M75.2,31.54 C74.0325697,31.6221238 72.9335963,30.9822122 72.4287815,29.9263714 C71.9239667,28.8705306 72.115933,27.6133996 72.9128518,26.7563359 C73.7097707,25.8992722 74.9496387,25.616506 76.0393562,26.0433005 C77.1290737,26.470095 77.847115,27.5196883 77.85,28.69 C77.8880138,29.4233233 77.6279145,30.1408624 77.128832,30.6794947 C76.6297496,31.2181271 75.9340894,31.532087 75.2,31.55 L75.2,31.54 Z M64.92,24 C62.3242703,24.0055287 60.2244965,26.1142632 60.2300213,28.7099929 C60.235546,31.3057225 62.3442774,33.4054996 64.940007,33.3999787 C67.5357367,33.3944578 69.635517,31.2857297 69.63,28.69 C69.6464189,27.4376892 69.1548049,26.2321465 68.2673291,25.3484392 C67.3798533,24.4647319 66.1722296,23.9782523 64.92,24 Z M64.92,31.54 C63.7525697,31.6221238 62.6535963,30.9822122 62.1487815,29.9263714 C61.6439667,28.8705306 61.835933,27.6133996 62.6328518,26.7563359 C63.4297707,25.8992722 64.6696387,25.616506 65.7593562,26.0433005 C66.8490737,26.470095 67.567115,27.5196883 67.57,28.69 C67.6080138,29.4233233 67.3479145,30.1408624 66.848832,30.6794947 C66.3497496,31.2181271 65.6540894,31.532087 64.92,31.55 L64.92,31.54 Z M52.69,25.44 L52.69,27.44 L57.46,27.44 C57.4000756,28.3909634 57.0193294,29.2934731 56.38,30 C55.408491,30.9805157 54.0691346,31.5068211 52.69,31.45 C49.8550812,31.3267718 47.620163,28.9925958 47.620163,26.155 C47.620163,23.3174042 49.8550812,20.9832282 52.69,20.86 C54.0299558,20.8419823 55.3231637,21.352081 56.29,22.28 L57.69,20.87 C56.3567109,19.5632655 54.5566814,18.8432537 52.69,18.87 C48.6638442,18.87 45.4,22.1338442 45.4,26.16 C45.4,30.1861558 48.6638442,33.45 52.69,33.45 C54.5941163,33.5389288 56.4457467,32.8113726 57.78,31.45 C58.9465704,30.1843223 59.5680394,28.5103075 59.51,26.79 C59.5131511,26.3740968 59.476315,25.9588538 59.4,25.55 L52.69,25.44 Z M102.69,26.98 C102.116971,25.2406571 100.520217,24.0430917 98.69,23.98 C97.4722192,23.9864365 96.3102828,24.4916663 95.4750579,25.3779117 C94.639833,26.2641572 94.204304,27.4539755 94.27,28.67 C94.2428308,29.9159506 94.7223637,31.1196053 95.5988682,32.0055346 C96.4753728,32.891464 97.6738301,33.3838424 98.92,33.37 C100.492773,33.3778123 101.964755,32.5967604 102.84,31.29 L101.24,30.22 C100.74707,31.0290755 99.8674066,31.5219903 98.92,31.52 C97.9411641,31.5558578 97.0403173,30.988364 96.65,30.09 L102.93,27.5 L102.69,26.98 Z M96.29,28.55 C96.246345,27.8604945 96.4810567,27.1822869 96.9415712,26.6672625 C97.4020856,26.1522382 98.0499232,25.8434315 98.74,25.81 C99.4715075,25.7604109 100.161342,26.1546022 100.49,26.81 L96.29,28.55 Z M91.19,33.1 L93.25,33.1 L93.25,19.31 L91.2,19.31 L91.19,33.1 Z M87.81,25.1 L87.74,25.1 C87.0974502,24.4289383 86.1984213,24.0649591 85.27,24.1 C82.7612058,24.2158145 80.7867372,26.283534 80.7867372,28.795 C80.7867372,31.306466 82.7612058,33.3741855 85.27,33.49 C86.2108676,33.5151833 87.1148343,33.1235864 87.74,32.42 L87.81,32.42 L87.81,33 C87.81,34.8 86.81,35.76 85.3,35.76 C84.2699786,35.7087482 83.3676122,35.0535518 83,34.09 L81.2,34.84 C81.8971495,36.5210797 83.5401042,37.6150664 85.36,37.61 C87.78,37.61 89.82,36.19 89.82,32.72 L89.82,24.29 L87.82,24.29 L87.81,25.1 Z M85.44,31.59 C84.7156184,31.5694457 84.0301699,31.2574937 83.5388731,30.7247849 C83.0475762,30.1920761 82.7919931,29.4836758 82.83,28.76 C82.7892254,28.0326977 83.0429671,27.3196036 83.534001,26.7815359 C84.0250349,26.2434681 84.7120105,25.9257378 85.44,25.9 C86.1585142,25.9200897 86.8377721,26.2322863 87.3209101,26.764493 C87.804048,27.2966996 88.0492895,28.002897 88,28.72 C88.0579723,29.4384601 87.8173922,30.149069 87.3348921,30.6845494 C86.852392,31.2200299 86.1705965,31.5330772 85.45,31.55 L85.44,31.59 Z M112.35,19.35 L107.42,19.35 L107.42,33.15 L109.48,33.15 L109.48,27.88 L112.35,27.88 C113.93027,27.9563629 115.424302,27.1567585 116.237308,25.7995167 C117.050314,24.4422749 117.050314,22.7477251 116.237308,21.3904833 C115.424302,20.0332415 113.93027,19.2336371 112.35,19.31 L112.35,19.35 Z M112.41,26 L109.48,26 L109.48,21.23 L112.41,21.23 C113.291637,21.1726407 114.13199,21.6104436 114.590205,22.3658325 C115.048421,23.1212215 115.048421,24.0687785 114.590205,24.8241675 C114.13199,25.5795564 113.291637,26.0173593 112.41,25.96 L112.41,26 Z M125.13,24 C123.596315,23.9126047 122.156133,24.7406109 121.46,26.11 L123.29,26.88 C123.661382,26.2017943 124.400045,25.8088883 125.17,25.88 C126.25462,25.7807112 127.219282,26.5675559 127.34,27.65 L127.34,27.79 C126.676328,27.4431515 125.938841,27.2613525 125.19,27.26 C123.19,27.26 121.19,28.34 121.19,30.37 C121.238525,31.2258802 121.629485,32.0262113 122.274751,32.5905843 C122.920018,33.1549573 123.76528,33.4358701 124.62,33.37 C125.68945,33.4420516 126.710435,32.9142218 127.27,32 L127.35,32 L127.35,33.07 L129.35,33.07 L129.35,27.8 C129.33,25.35 127.51,24 125.14,24 L125.13,24 Z M124.89,31.56 C124.21,31.56 123.27,31.23 123.27,30.39 C123.27,29.33 124.44,28.92 125.45,28.92 C126.110011,28.8995488 126.763208,29.0585279 127.34,29.38 C127.176133,30.6061414 126.136964,31.5260613 124.9,31.54 L124.89,31.56 Z M136.57,24.3 L134.21,30.3 L134.13,30.3 L131.68,24.3 L129.47,24.3 L133.14,32.66 L131.05,37.32 L133.19,37.32 L138.86,24.32 L136.57,24.3 Z M118,33.11 L120.06,33.11 L120.06,19.31 L118,19.31 L118,33.11 Z" id="Shape" fill="#FFFFFF" fill-rule="nonzero"></path>
                    <path d="M11.52,8.32 C11.1558034,8.75170606 10.9698479,9.30599632 11,9.87 L11,34.28 C10.9670705,34.842675 11.1493986,35.3968094 11.51,35.83 L11.59,35.91 L25.27,22.24 L25.27,21.91 L11.6,8.24 L11.52,8.32 Z" id="Path" fill="url(#linearGradient-1)"></path>
                    <path d="M29.83,26.8 L25.27,22.24 L25.27,21.91 L29.83,17.36 L29.93,17.41 L35.33,20.48 C36.88,21.36 36.88,22.79 35.33,23.67 L29.93,26.74 L29.83,26.8 Z" id="Path" fill="url(#linearGradient-2)"></path>
                    <path d="M29.93,26.74 L25.27,22.08 L11.52,35.83 C12.1664772,36.402759 13.1297466,36.4322039 13.81,35.9 L29.93,26.74" id="Path" fill="url(#linearGradient-3)"></path>
                    <path d="M29.93,17.41 L13.81,8.25 C13.1297466,7.71779611 12.1664772,7.74724102 11.52,8.32 L25.27,22.08 L29.93,17.41 Z" id="Path" fill="url(#linearGradient-4)"></path>
                    <path d="M29.83,26.63 L13.83,35.74 C13.1753707,36.2316674 12.2746293,36.2316674 11.62,35.74 L11.54,35.82 L11.62,35.9 C12.2746293,36.3916674 13.1753707,36.3916674 13.83,35.9 L29.95,26.74 L29.83,26.63 Z" id="Path" fill="#000000" opacity="0.2"></path>
                    <path d="M11.52,35.67 C11.1558034,35.2382939 10.9698479,34.6840037 11,34.12 L11,34.28 C10.9670705,34.842675 11.1493986,35.3968094 11.51,35.83 L11.59,35.75 L11.52,35.67 Z" id="Path" fill="#000000" opacity="0.12"></path>
                    <path d="M35.33,23.51 L29.83,26.63 L29.93,26.74 L35.33,23.67 C35.9781608,23.3917884 36.422928,22.7821506 36.49,22.08 C36.3512025,22.7132741 35.9210306,23.2435723 35.33,23.51 Z" id="Path" fill="#000000" opacity="0.12"></path>
                    <path d="M13.81,8.41 L35.33,20.64 C35.9286679,20.901707 36.3617593,21.4393377 36.49,22.08 C36.4264319,21.374137 35.9811077,20.7598968 35.33,20.48 L13.81,8.25 C12.27,7.38 11,8.1 11,9.87 L11,10 C11,8.27 12.27,7.54 13.81,8.41 Z" id="Path" fill="#FFFFFF" opacity="0.25"></path>
                </g>
            </g>
        </g>
    </g>
</svg>