<?xml version="1.0" encoding="UTF-8"?>
<svg width="149px" height="45px" viewBox="0 0 149 45" version="1.1" xmlns="http://www.w3.org/2000/svg" xmlns:xlink="http://www.w3.org/1999/xlink">
    <!-- Generator: sketchtool 52.6 (67491) - http://www.bohemiancoding.com/sketch -->
    <title>B0B45246-371D-4A0E-8894-5EC39797E760</title>
    <desc>Created with sketchtool.</desc>
    <defs>
        <polygon id="path-1" points="0 0.852 149 0.852 149 44.9999 0 44.9999"></polygon>
        <polygon id="path-3" points="0 45.1481 149 45.1481 149 1.0001 0 1.0001"></polygon>
    </defs>
    <g id="Desktop" stroke="none" stroke-width="1" fill="none" fill-rule="evenodd">
        <g id="Home-Page" transform="translate(-299.000000, -479.000000)">
            <g id="Group-22" transform="translate(299.000000, 478.000000)">
                <g id="Group-3" transform="translate(0.000000, 0.148100)">
                    <mask id="mask-2" fill="white">
                        <use xlink:href="#path-1"></use>
                    </mask>
                    <g id="Clip-2"></g>
                    <path d="M143.4818,44.9999 L5.5188,44.9999 C2.4828,44.9999 -0.0002,42.5169 -0.0002,39.4809 L-0.0002,6.3709 C-0.0002,3.3349 2.4828,0.8519 5.5188,0.8519 L143.4818,0.8519 C146.5168,0.8519 149.0008,3.3349 149.0008,6.3709 L149.0008,39.4809 C149.0008,42.5169 146.5168,44.9999 143.4818,44.9999" id="Fill-1" fill="#D8D8D8" mask="url(#mask-2)"></path>
                </g>
                <path d="M28.5023,11.9072 C30.1713,9.7062 32.4923,9.6962 32.4923,9.6962 C32.4923,9.6962 32.8373,11.7642 31.1793,13.7572 C29.4083,15.8852 27.3963,15.5372 27.3963,15.5372 C27.3963,15.5372 27.0183,13.8632 28.5023,11.9072" id="Fill-4" fill="#A9A9A9"></path>
                <path d="M27.6078,16.9859 C28.4668,16.9859 30.0608,15.8059 32.1348,15.8059 C35.7068,15.8059 37.1118,18.3469 37.1118,18.3469 C37.1118,18.3469 34.3638,19.7519 34.3638,23.1599 C34.3638,27.0059 37.7868,28.3309 37.7868,28.3309 C37.7868,28.3309 35.3938,35.0659 32.1618,35.0659 C30.6768,35.0659 29.5238,34.0659 27.9598,34.0659 C26.3658,34.0659 24.7838,35.1029 23.7538,35.1029 C20.8028,35.1029 17.0738,28.7149 17.0738,23.5789 C17.0738,18.5269 20.2298,15.8769 23.1898,15.8769 C25.1148,15.8769 26.6078,16.9859 27.6078,16.9859" id="Fill-6" fill="#A9A9A9"></path>
                <path d="M58.85,20.4961 C58.575,20.1381 58.226,19.8631 57.804,19.6701 C57.381,19.4771 56.946,19.3811 56.496,19.3811 C55.946,19.3811 55.448,19.4841 55.002,19.6901 C54.557,19.8971 54.176,20.1791 53.86,20.5381 C53.543,20.8951 53.297,21.3151 53.123,21.7971 C52.949,22.2791 52.862,22.7951 52.862,23.3461 C52.862,23.8601 52.944,24.3471 53.109,24.8051 C53.275,25.2651 53.513,25.6681 53.826,26.0171 C54.137,26.3661 54.518,26.6411 54.968,26.8431 C55.417,27.0451 55.927,27.1461 56.496,27.1461 C57.056,27.1461 57.547,27.0311 57.969,26.8021 C58.391,26.5721 58.749,26.2511 59.043,25.8381 L60.159,26.6781 C60.084,26.7791 59.956,26.9231 59.773,27.1111 C59.589,27.3001 59.346,27.4881 59.043,27.6761 C58.741,27.8641 58.375,28.0291 57.949,28.1711 C57.522,28.3141 57.029,28.3851 56.468,28.3851 C55.698,28.3851 55.002,28.2381 54.382,27.9441 C53.763,27.6511 53.235,27.2651 52.799,26.7881 C52.364,26.3111 52.031,25.7711 51.801,25.1701 C51.572,24.5691 51.457,23.9611 51.457,23.3461 C51.457,22.5931 51.581,21.8981 51.829,21.2601 C52.077,20.6221 52.423,20.0721 52.869,19.6081 C53.313,19.1441 53.848,18.7841 54.472,18.5271 C55.096,18.2701 55.785,18.1421 56.537,18.1421 C57.18,18.1421 57.811,18.2661 58.43,18.5141 C59.05,18.7611 59.557,19.1421 59.952,19.6561 L58.85,20.4961 Z" id="Fill-8" fill="#A9A9A9"></path>
                <path d="M62.4437,24.874 C62.4437,25.205 62.4937,25.51 62.5947,25.79 C62.6957,26.07 62.8387,26.309 63.0217,26.506 C63.2057,26.703 63.4297,26.859 63.6967,26.974 C63.9627,27.089 64.2607,27.146 64.5907,27.146 C64.9227,27.146 65.2197,27.089 65.4867,26.974 C65.7527,26.859 65.9767,26.703 66.1607,26.506 C66.3437,26.309 66.4867,26.07 66.5877,25.79 C66.6887,25.51 66.7397,25.205 66.7397,24.874 C66.7397,24.544 66.6887,24.239 66.5877,23.958 C66.4867,23.679 66.3437,23.44 66.1607,23.243 C65.9767,23.045 65.7527,22.89 65.4867,22.774 C65.2197,22.66 64.9227,22.603 64.5907,22.603 C64.2607,22.603 63.9627,22.66 63.6967,22.774 C63.4297,22.89 63.2057,23.045 63.0217,23.243 C62.8387,23.44 62.6957,23.679 62.5947,23.958 C62.4937,24.239 62.4437,24.544 62.4437,24.874 M61.1217,24.874 C61.1217,24.397 61.2117,23.952 61.3897,23.539 C61.5697,23.125 61.8147,22.763 62.1277,22.451 C62.4387,22.139 62.8057,21.894 63.2277,21.714 C63.6507,21.536 64.1047,21.446 64.5907,21.446 C65.0777,21.446 65.5317,21.536 65.9547,21.714 C66.3767,21.894 66.7437,22.139 67.0557,22.451 C67.3677,22.763 67.6137,23.125 67.7927,23.539 C67.9707,23.952 68.0607,24.397 68.0607,24.874 C68.0607,25.352 67.9707,25.799 67.7927,26.217 C67.6137,26.634 67.3677,26.997 67.0557,27.304 C66.7437,27.612 66.3767,27.855 65.9547,28.034 C65.5317,28.213 65.0777,28.302 64.5907,28.302 C64.1047,28.302 63.6507,28.213 63.2277,28.034 C62.8057,27.855 62.4387,27.612 62.1277,27.304 C61.8147,26.997 61.5697,26.634 61.3897,26.217 C61.2117,25.799 61.1217,25.352 61.1217,24.874" id="Fill-10" fill="#A9A9A9"></path>
                <path d="M69.6166,21.6113 L70.7726,21.6113 L70.7726,22.6303 L70.8006,22.6303 C70.8276,22.5383 70.8986,22.4233 71.0136,22.2853 C71.1286,22.1483 71.2756,22.0173 71.4546,21.8933 C71.6336,21.7693 71.8446,21.6643 72.0876,21.5763 C72.3306,21.4893 72.5986,21.4453 72.8926,21.4453 C73.3796,21.4453 73.7876,21.5473 74.1186,21.7493 C74.4486,21.9513 74.7196,22.2543 74.9306,22.6573 C75.1416,22.2543 75.4396,21.9513 75.8256,21.7493 C76.2116,21.5473 76.6006,21.4453 76.9956,21.4453 C77.5006,21.4453 77.9136,21.5283 78.2346,21.6943 C78.5556,21.8593 78.8076,22.0773 78.9926,22.3473 C79.1756,22.6183 79.3026,22.9263 79.3706,23.2703 C79.4396,23.6143 79.4736,23.9703 79.4736,24.3373 L79.4736,28.1373 L78.2346,28.1373 L78.2346,24.5023 C78.2346,24.2553 78.2196,24.0163 78.1866,23.7863 C78.1546,23.5573 78.0886,23.3553 77.9866,23.1803 C77.8866,23.0063 77.7436,22.8663 77.5596,22.7603 C77.3766,22.6553 77.1336,22.6023 76.8306,22.6023 C76.2336,22.6023 75.8066,22.7863 75.5506,23.1533 C75.2936,23.5203 75.1646,23.9933 75.1646,24.5713 L75.1646,28.1373 L73.9256,28.1373 L73.9256,24.7223 C73.9256,24.4103 73.9096,24.1263 73.8776,23.8693 C73.8456,23.6123 73.7806,23.3893 73.6846,23.2013 C73.5886,23.0133 73.4506,22.8663 73.2716,22.7603 C73.0926,22.6553 72.8516,22.6023 72.5496,22.6023 C72.3286,22.6023 72.1156,22.6463 71.9086,22.7333 C71.7026,22.8203 71.5206,22.9513 71.3646,23.1253 C71.2086,23.3003 71.0846,23.5233 70.9936,23.7933 C70.9006,24.0643 70.8556,24.3833 70.8556,24.7503 L70.8556,28.1373 L69.6166,28.1373 L69.6166,21.6113 Z" id="Fill-12" fill="#A9A9A9"></path>
                <mask id="mask-4" fill="white">
                    <use xlink:href="#path-3"></use>
                </mask>
                <g id="Clip-15"></g>
                <path d="M81.443,28.1371 L82.682,28.1371 L82.682,21.6111 L81.443,21.6111 L81.443,28.1371 Z M81.154,19.2701 C81.154,19.0231 81.244,18.8091 81.422,18.6301 C81.601,18.4521 81.815,18.3621 82.063,18.3621 C82.311,18.3621 82.524,18.4521 82.703,18.6301 C82.882,18.8091 82.971,19.0231 82.971,19.2701 C82.971,19.5181 82.882,19.7321 82.703,19.9111 C82.524,20.0901 82.311,20.1791 82.063,20.1791 C81.815,20.1791 81.601,20.0901 81.422,19.9111 C81.244,19.7321 81.154,19.5181 81.154,19.2701 Z" id="Fill-14" fill="#A9A9A9" mask="url(#mask-4)"></path>
                <path d="M84.6508,21.6113 L85.8898,21.6113 L85.8898,22.6163 L85.9178,22.6163 C86.0728,22.2673 86.3438,21.9853 86.7298,21.7693 C87.1148,21.5543 87.5598,21.4453 88.0648,21.4453 C88.3768,21.4453 88.6768,21.4943 88.9658,21.5903 C89.2558,21.6873 89.5078,21.8363 89.7238,22.0383 C89.9398,22.2403 90.1118,22.4993 90.2408,22.8163 C90.3688,23.1323 90.4328,23.5073 90.4328,23.9383 L90.4328,28.1373 L89.1938,28.1373 L89.1938,24.2823 C89.1938,23.9793 89.1528,23.7203 89.0698,23.5043 C88.9878,23.2883 88.8778,23.1143 88.7398,22.9813 C88.6018,22.8483 88.4438,22.7523 88.2638,22.6923 C88.0858,22.6323 87.8998,22.6023 87.7068,22.6023 C87.4498,22.6023 87.2118,22.6443 86.9908,22.7263 C86.7708,22.8093 86.5778,22.9403 86.4128,23.1183 C86.2478,23.2983 86.1188,23.5253 86.0278,23.8003 C85.9348,24.0753 85.8898,24.4013 85.8898,24.7783 L85.8898,28.1373 L84.6508,28.1373 L84.6508,21.6113 Z" id="Fill-16" fill="#A9A9A9" mask="url(#mask-4)"></path>
                <path d="M95.4584,22.6026 C95.1284,22.6026 94.8294,22.6606 94.5634,22.7746 C94.2974,22.8896 94.0724,23.0456 93.8894,23.2426 C93.7054,23.4406 93.5624,23.6786 93.4624,23.9586 C93.3604,24.2386 93.3114,24.5436 93.3114,24.8736 C93.3114,25.5356 93.5034,26.0646 93.8894,26.4646 C94.2744,26.8636 94.7974,27.0636 95.4584,27.0636 C96.1194,27.0636 96.6434,26.8636 97.0274,26.4646 C97.4134,26.0646 97.6064,25.5356 97.6064,24.8736 C97.6064,24.5436 97.5564,24.2386 97.4544,23.9586 C97.3544,23.6786 97.2114,23.4406 97.0274,23.2426 C96.8444,23.0456 96.6194,22.8896 96.3544,22.7746 C96.0874,22.6606 95.7894,22.6026 95.4584,22.6026 Z M98.8454,28.0816 C98.8454,28.5776 98.7604,29.0296 98.5914,29.4386 C98.4214,29.8466 98.1804,30.2006 97.8674,30.4986 C97.5564,30.7966 97.1794,31.0286 96.7384,31.1936 C96.2984,31.3586 95.8124,31.4416 95.2794,31.4416 C94.6554,31.4416 94.0844,31.3536 93.5654,31.1796 C93.0474,31.0056 92.5534,30.7026 92.0854,30.2706 L92.9254,29.2256 C93.2464,29.5736 93.5954,29.8376 93.9724,30.0166 C94.3484,30.1956 94.7744,30.2856 95.2524,30.2856 C95.7114,30.2856 96.0924,30.2186 96.3954,30.0856 C96.6974,29.9526 96.9384,29.7806 97.1174,29.5686 C97.2964,29.3576 97.4224,29.1166 97.4964,28.8466 C97.5694,28.5756 97.6064,28.3026 97.6064,28.0266 L97.6064,27.0636 L97.5644,27.0636 C97.3264,27.4576 97.0024,27.7496 96.5944,27.9376 C96.1864,28.1256 95.7564,28.2196 95.3074,28.2196 C94.8294,28.2196 94.3874,28.1356 93.9794,27.9656 C93.5694,27.7956 93.2194,27.5616 92.9254,27.2636 C92.6314,26.9646 92.4014,26.6116 92.2364,26.2026 C92.0714,25.7946 91.9884,25.3516 91.9884,24.8736 C91.9884,24.3966 92.0664,23.9496 92.2234,23.5316 C92.3794,23.1146 92.6024,22.7496 92.8914,22.4376 C93.1804,22.1256 93.5284,21.8826 93.9374,21.7076 C94.3454,21.5336 94.8024,21.4456 95.3074,21.4456 C95.7474,21.4456 96.1764,21.5426 96.5944,21.7356 C97.0124,21.9276 97.3404,22.1986 97.5784,22.5476 L97.6064,22.5476 L97.6064,21.6116 L98.8454,21.6116 L98.8454,28.0816 Z" id="Fill-17" fill="#A9A9A9" mask="url(#mask-4)"></path>
                <path d="M105.1508,26.0996 C105.3888,26.4576 105.6948,26.7216 106.0668,26.8916 C106.4378,27.0606 106.8218,27.1456 107.2158,27.1456 C107.4358,27.1456 107.6618,27.1116 107.8908,27.0426 C108.1198,26.9736 108.3288,26.8706 108.5168,26.7326 C108.7058,26.5956 108.8588,26.4256 108.9778,26.2236 C109.0968,26.0216 109.1578,25.7876 109.1578,25.5216 C109.1578,25.1446 109.0378,24.8586 108.7988,24.6606 C108.5608,24.4636 108.2638,24.2986 107.9118,24.1646 C107.5578,24.0326 107.1718,23.9036 106.7548,23.7796 C106.3378,23.6556 105.9518,23.4836 105.5978,23.2636 C105.2448,23.0426 104.9488,22.7466 104.7108,22.3756 C104.4708,22.0036 104.3518,21.5006 104.3518,20.8676 C104.3518,20.5836 104.4148,20.2806 104.5388,19.9586 C104.6628,19.6376 104.8568,19.3446 105.1238,19.0786 C105.3888,18.8116 105.7308,18.5896 106.1488,18.4106 C106.5668,18.2316 107.0688,18.1416 107.6568,18.1416 C108.1888,18.1416 108.6988,18.2156 109.1848,18.3616 C109.6718,18.5086 110.0978,18.8076 110.4648,19.2566 L109.3908,20.2346 C109.2258,19.9776 108.9918,19.7706 108.6888,19.6146 C108.3858,19.4586 108.0428,19.3806 107.6568,19.3806 C107.2898,19.3806 106.9838,19.4296 106.7408,19.5256 C106.4978,19.6216 106.3018,19.7456 106.1558,19.8966 C106.0088,20.0486 105.9058,20.2116 105.8458,20.3856 C105.7868,20.5606 105.7558,20.7216 105.7558,20.8676 C105.7558,21.2806 105.8758,21.5976 106.1148,21.8176 C106.3528,22.0376 106.6488,22.2166 107.0028,22.3546 C107.3558,22.4926 107.7418,22.6166 108.1588,22.7266 C108.5768,22.8366 108.9628,22.9906 109.3158,23.1876 C109.6688,23.3856 109.9648,23.6516 110.2038,23.9866 C110.4418,24.3216 110.5618,24.7826 110.5618,25.3706 C110.5618,25.8376 110.4718,26.2606 110.2938,26.6366 C110.1138,27.0136 109.8738,27.3296 109.5708,27.5866 C109.2668,27.8436 108.9098,28.0406 108.4968,28.1786 C108.0838,28.3166 107.6428,28.3856 107.1738,28.3856 C106.5498,28.3856 105.9588,28.2746 105.3988,28.0546 C104.8388,27.8346 104.3938,27.4946 104.0628,27.0356 L105.1508,26.0996 Z" id="Fill-18" fill="#A9A9A9" mask="url(#mask-4)"></path>
                <path d="M113.2054,24.874 C113.2054,25.205 113.2554,25.51 113.3564,25.79 C113.4574,26.07 113.6004,26.309 113.7834,26.506 C113.9674,26.703 114.1914,26.859 114.4584,26.974 C114.7244,27.089 115.0224,27.146 115.3524,27.146 C115.6844,27.146 115.9814,27.089 116.2484,26.974 C116.5144,26.859 116.7384,26.703 116.9224,26.506 C117.1054,26.309 117.2484,26.07 117.3494,25.79 C117.4504,25.51 117.5014,25.205 117.5014,24.874 C117.5014,24.544 117.4504,24.239 117.3494,23.958 C117.2484,23.679 117.1054,23.44 116.9224,23.243 C116.7384,23.045 116.5144,22.89 116.2484,22.774 C115.9814,22.66 115.6844,22.603 115.3524,22.603 C115.0224,22.603 114.7244,22.66 114.4584,22.774 C114.1914,22.89 113.9674,23.045 113.7834,23.243 C113.6004,23.44 113.4574,23.679 113.3564,23.958 C113.2554,24.239 113.2054,24.544 113.2054,24.874 M111.8834,24.874 C111.8834,24.397 111.9734,23.952 112.1514,23.539 C112.3314,23.125 112.5764,22.763 112.8894,22.451 C113.2004,22.139 113.5674,21.894 113.9894,21.714 C114.4124,21.536 114.8664,21.446 115.3524,21.446 C115.8394,21.446 116.2934,21.536 116.7164,21.714 C117.1384,21.894 117.5054,22.139 117.8174,22.451 C118.1294,22.763 118.3754,23.125 118.5544,23.539 C118.7324,23.952 118.8224,24.397 118.8224,24.874 C118.8224,25.352 118.7324,25.799 118.5544,26.217 C118.3754,26.634 118.1294,26.997 117.8174,27.304 C117.5054,27.612 117.1384,27.855 116.7164,28.034 C116.2934,28.213 115.8394,28.302 115.3524,28.302 C114.8664,28.302 114.4124,28.213 113.9894,28.034 C113.5674,27.855 113.2004,27.612 112.8894,27.304 C112.5764,26.997 112.3314,26.634 112.1514,26.217 C111.9734,25.799 111.8834,25.352 111.8834,24.874" id="Fill-19" fill="#A9A9A9" mask="url(#mask-4)"></path>
                <path d="M121.3832,24.874 C121.3832,25.205 121.4332,25.51 121.5342,25.79 C121.6352,26.07 121.7782,26.309 121.9612,26.506 C122.1452,26.703 122.3692,26.859 122.6362,26.974 C122.9022,27.089 123.2002,27.146 123.5302,27.146 C123.8622,27.146 124.1592,27.089 124.4262,26.974 C124.6922,26.859 124.9162,26.703 125.1002,26.506 C125.2832,26.309 125.4262,26.07 125.5272,25.79 C125.6282,25.51 125.6792,25.205 125.6792,24.874 C125.6792,24.544 125.6282,24.239 125.5272,23.958 C125.4262,23.679 125.2832,23.44 125.1002,23.243 C124.9162,23.045 124.6922,22.89 124.4262,22.774 C124.1592,22.66 123.8622,22.603 123.5302,22.603 C123.2002,22.603 122.9022,22.66 122.6362,22.774 C122.3692,22.89 122.1452,23.045 121.9612,23.243 C121.7782,23.44 121.6352,23.679 121.5342,23.958 C121.4332,24.239 121.3832,24.544 121.3832,24.874 M120.0612,24.874 C120.0612,24.397 120.1512,23.952 120.3292,23.539 C120.5092,23.125 120.7542,22.763 121.0672,22.451 C121.3782,22.139 121.7452,21.894 122.1672,21.714 C122.5902,21.536 123.0442,21.446 123.5302,21.446 C124.0172,21.446 124.4712,21.536 124.8942,21.714 C125.3162,21.894 125.6832,22.139 125.9952,22.451 C126.3072,22.763 126.5532,23.125 126.7322,23.539 C126.9102,23.952 127.0002,24.397 127.0002,24.874 C127.0002,25.352 126.9102,25.799 126.7322,26.217 C126.5532,26.634 126.3072,26.997 125.9952,27.304 C125.6832,27.612 125.3162,27.855 124.8942,28.034 C124.4712,28.213 124.0172,28.302 123.5302,28.302 C123.0442,28.302 122.5902,28.213 122.1672,28.034 C121.7452,27.855 121.3782,27.612 121.0672,27.304 C120.7542,26.997 120.5092,26.634 120.3292,26.217 C120.1512,25.799 120.0612,25.352 120.0612,24.874" id="Fill-20" fill="#A9A9A9" mask="url(#mask-4)"></path>
                <path d="M128.556,21.6113 L129.795,21.6113 L129.795,22.6163 L129.823,22.6163 C129.978,22.2673 130.249,21.9853 130.635,21.7693 C131.02,21.5543 131.465,21.4453 131.97,21.4453 C132.282,21.4453 132.582,21.4943 132.871,21.5903 C133.161,21.6873 133.413,21.8363 133.629,22.0383 C133.845,22.2403 134.017,22.4993 134.146,22.8163 C134.274,23.1323 134.338,23.5073 134.338,23.9383 L134.338,28.1373 L133.099,28.1373 L133.099,24.2823 C133.099,23.9793 133.058,23.7203 132.975,23.5043 C132.893,23.2883 132.783,23.1143 132.645,22.9813 C132.507,22.8483 132.349,22.7523 132.169,22.6923 C131.991,22.6323 131.805,22.6023 131.612,22.6023 C131.355,22.6023 131.117,22.6443 130.896,22.7263 C130.676,22.8093 130.483,22.9403 130.318,23.1183 C130.153,23.2983 130.024,23.5253 129.933,23.8003 C129.84,24.0753 129.795,24.4013 129.795,24.7783 L129.795,28.1373 L128.556,28.1373 L128.556,21.6113 Z" id="Fill-21" fill="#A9A9A9" mask="url(#mask-4)"></path>
            </g>
        </g>
    </g>
</svg>